<?xml version="1.0" encoding="UTF-8"?> <svg xmlns="http://www.w3.org/2000/svg" xmlns:xlink="http://www.w3.org/1999/xlink" id="Group_196" data-name="Group 196" width="149.056" height="38.259" viewBox="0 0 149.056 38.259"><defs><linearGradient id="linear-gradient" x1="-0.97" y1="0.488" x2="35.735" y2="0.785" gradientUnits="objectBoundingBox"><stop offset="0.088" stop-color="#295ba7"></stop><stop offset="0.746" stop-color="#cf1a7d"></stop><stop offset="1" stop-color="#e10079"></stop></linearGradient><linearGradient id="linear-gradient-2" x1="-14.895" y1="0.376" x2="21.81" y2="0.672" xlink:href="#linear-gradient"></linearGradient><linearGradient id="linear-gradient-3" x1="-2.854" y1="0.36" x2="3.292" y2="0.636" xlink:href="#linear-gradient"></linearGradient><linearGradient id="linear-gradient-4" x1="-0.486" y1="0.467" x2="5.66" y2="0.743" xlink:href="#linear-gradient"></linearGradient><linearGradient id="linear-gradient-5" x1="-2.171" y1="0.275" x2="1.179" y2="0.536" xlink:href="#linear-gradient"></linearGradient><linearGradient id="linear-gradient-6" x1="-2.057" y1="0.438" x2="6.03" y2="0.625" xlink:href="#linear-gradient"></linearGradient><linearGradient id="linear-gradient-7" x1="-11.081" y1="0.007" x2="16.916" y2="1.199" xlink:href="#linear-gradient"></linearGradient><linearGradient id="linear-gradient-8" x1="-0.455" y1="0.459" x2="27.542" y2="1.651" xlink:href="#linear-gradient"></linearGradient></defs><g id="Group_190" data-name="Group 190"><rect id="Rectangle_619" data-name="Rectangle 619" width="4.386" height="23.063" transform="translate(0.683 13.776)" fill="url(#linear-gradient)"></rect><rect id="Rectangle_620" data-name="Rectangle 620" width="4.386" height="23.141" transform="translate(61.873 13.776)" fill="url(#linear-gradient-2)"></rect><path id="Path_1180" data-name="Path 1180" d="M428.845,303.725V292.036a1.01,1.01,0,0,1,.013-.165l-.013-.45c-.009-.049-.015-.1-.02-.154a13.089,13.089,0,0,0-26.135,0,1.105,1.105,0,0,1-.018.152l-.013.454a1,1,0,0,1,.013.163v11.689h4.346V292.034a8.741,8.741,0,1,1,17.482,0v11.689Z" transform="translate(-331.297 -266.885)" fill="url(#linear-gradient-3)"></path><path id="Path_1181" data-name="Path 1181" d="M400.676,303.725V292.036a1.365,1.365,0,0,1,.011-.165l-.011-.452a.85.85,0,0,1-.02-.152,13.089,13.089,0,0,0-26.135,0,.836.836,0,0,1-.02.152l-.011.454a1.312,1.312,0,0,1,.011.163v11.689h4.348V292.034a8.741,8.741,0,1,1,17.482,0v11.689Z" transform="translate(-365.265 -266.885)" fill="url(#linear-gradient-4)"></path><path id="Path_1182" data-name="Path 1182" d="M437.945,292.306l.02.5.018.2a13.1,13.1,0,1,0,5.5-11.673,16.424,16.424,0,0,1,2.312,3.721,8.736,8.736,0,1,1-3.426,8.036l-.1-1.591a13.09,13.09,0,0,0-26.149-.234l-.024.472.007.3v11.689h4.346V292.034a8.741,8.741,0,1,1,17.482,0C437.932,292.127,437.938,292.215,437.945,292.306Z" transform="translate(-315.091 -266.885)" fill="url(#linear-gradient-5)"></path><path id="Path_1183" data-name="Path 1183" d="M407.335,287.109H397.1l.108-1.213A8.682,8.682,0,0,1,404.8,278v-.075h2.535v-4.346l-1.888.009a13.158,13.158,0,0,0-12.607,12.457l-.051,1.061h-5.363v3.582h5.38V310.1h4.388V290.691h10.14Z" transform="translate(-349.665 -273.333)" fill="url(#linear-gradient-6)"></path><path id="Path_1184" data-name="Path 1184" d="M400.936,273.469a2.874,2.874,0,1,0,2.874,2.874A2.879,2.879,0,0,0,400.936,273.469Z" transform="translate(-336.842 -273.469)" fill="url(#linear-gradient-7)"></path><path id="Path_1185" data-name="Path 1185" d="M373.185,273.469a2.874,2.874,0,1,0,2.874,2.874A2.879,2.879,0,0,0,373.185,273.469Z" transform="translate(-370.308 -273.469)" fill="url(#linear-gradient-8)"></path></g></svg> 